<?xml version="1.0" standalone="no"?><!DOCTYPE svg PUBLIC "-//W3C//DTD SVG 1.1//EN" "http://www.w3.org/Graphics/SVG/1.1/DTD/svg11.dtd"><svg t="1729788126188" class="icon" viewBox="0 0 1024 1024" version="1.1" xmlns="http://www.w3.org/2000/svg" p-id="6624" width="16" height="16" xmlns:xlink="http://www.w3.org/1999/xlink"><path d="M59.812247 155.535379l0 707.683774 933.345304 0L993.157551 155.535379 59.812247 155.535379zM962.458365 832.520991 90.511433 832.520991 90.511433 186.234565l871.946932 0L962.458365 832.520991z" fill="#2c2c2c" p-id="6625"></path><path d="M374.432855 708.146309c76.239382 0 129.581264-56.414871 137.947815-149.422148l-91.230818 0c-3.5345 34.848693-17.637706 61.280692-48.048319 61.280692-48.031946 0-56.858986-47.604204-56.858986-98.299817 0-69.631894 19.840884-104.874559 52.897767-104.874559 29.966499 0 48.476061 21.599947 51.566446 59.045791l89.472777 0c-7.495718-92.545766-56.858986-147.21897-145.000442-147.21897-80.217996 0-143.685493 72.722278-143.685493 189.103916C221.493603 634.997312 279.223423 708.146309 374.432855 708.146309z" fill="#2c2c2c" p-id="6626"></path><path d="M688.234817 708.146309c76.255755 0 129.137149-56.414871 137.521097-149.422148l-90.804099 0c-3.518127 34.848693-18.065448 61.280692-48.476061 61.280692-48.048319 0-56.415894-47.604204-56.415894-98.299817 0-69.631894 19.824511-104.874559 52.881394-104.874559 29.538757 0 48.492434 21.599947 51.138704 59.045791l89.899496 0c-7.479345-92.545766-56.842613-147.21897-145.000442-147.21897-80.217996 0-143.685493 72.722278-143.685493 189.103916C535.295566 634.997312 593.042781 708.146309 688.234817 708.146309z" fill="#2c2c2c" p-id="6627"></path></svg>